<svg aria-hidden="true" style="position: absolute; width: 0; height: 0; overflow: hidden;" version="1.1" xmlns="http://www.w3.org/2000/svg" xmlns:xlink="http://www.w3.org/1999/xlink">
<defs>
<symbol id="icon-insta" viewBox="0 0 32 32">
<path d="M22.667 2.667h-13.333c-3.68 0-6.667 2.987-6.667 6.667v13.333c0 3.68 2.987 6.667 6.667 6.667h13.333c3.68 0 6.667-2.987 6.667-6.667v-13.333c0-3.68-2.987-6.667-6.667-6.667zM16 22.667c-3.68 0-6.667-2.987-6.667-6.667s2.987-6.667 6.667-6.667c3.68 0 6.667 2.987 6.667 6.667s-2.987 6.667-6.667 6.667zM23.133 10.16c-0.733 0-1.333-0.6-1.333-1.333s0.6-1.333 1.333-1.333c0.733 0 1.333 0.6 1.333 1.333s-0.6 1.333-1.333 1.333z"></path>
<path d="M16 20c2.209 0 4-1.791 4-4s-1.791-4-4-4c-2.209 0-4 1.791-4 4s1.791 4 4 4z"></path>
</symbol>
<symbol id="icon-finder" viewBox="0 0 32 32">
<path d="M5.416 10.226c1.902-4.566 6.357-7.546 11.303-7.559 5.331-0.028 10.071 3.387 11.733 8.452s-0.135 10.624-4.446 13.76c-4.312 3.135-10.153 3.131-14.46-0.011l-3.84 3.84c-0.39 0.39-1.023 0.39-1.413 0s-0.39-1.023 0-1.413l3.72-3.72c-3.475-3.52-4.498-8.782-2.597-13.348zM7.199 18.892c1.597 3.848 5.355 6.353 9.521 6.348v-0.053c5.654-0.007 10.243-4.573 10.28-10.227 0.005-4.166-2.5-7.924-6.348-9.521s-8.278-0.717-11.224 2.229c-2.946 2.946-3.825 7.376-2.229 11.224z"></path>
</symbol>
<symbol id="icon-arrow" viewBox="0 0 32 32">
<path d="M21.333 27.667c-0.265 0.001-0.52-0.105-0.707-0.293l-10.667-10.667c-0.39-0.39-0.39-1.023 0-1.413l10.667-10.667c0.394-0.367 1.008-0.356 1.389 0.024s0.392 0.995 0.025 1.389l-9.96 9.96 9.96 9.96c0.39 0.39 0.39 1.023 0 1.413-0.187 0.189-0.441 0.295-0.707 0.293z"></path>
</symbol>
<symbol id="icon-tg" viewBox="0 0 32 32">
<path d="M28.621 3.654c-4.011 1.661-21.206 8.784-25.958 10.725-3.187 1.243-1.321 2.409-1.321 2.409s2.72 0.933 5.052 1.632c2.332 0.7 3.575-0.078 3.575-0.078l10.958-7.383c3.886-2.642 2.953-0.466 2.021 0.466-2.021 2.021-5.363 5.207-8.16 7.772-1.244 1.088-0.622 2.021-0.078 2.487 2.021 1.71 7.539 5.207 7.85 5.44 1.642 1.162 4.871 2.835 5.363-0.7l1.943-12.202c0.622-4.119 1.244-7.927 1.321-9.015 0.233-2.642-2.565-1.554-2.565-1.554z"></path>
</symbol>
<symbol id="icon-tik" viewBox="0 0 32 32">
<path d="M29.054 7.029c-3.359 0-6.092-2.733-6.092-6.092 0-0.518-0.42-0.938-0.937-0.938h-5.021c-0.518 0-0.937 0.42-0.937 0.938v20.585c0 1.975-1.607 3.581-3.581 3.581s-3.581-1.607-3.581-3.581c0-1.975 1.607-3.581 3.581-3.581 0.518 0 0.937-0.42 0.937-0.937v-5.021c0-0.518-0.42-0.938-0.937-0.938-5.777 0-10.477 4.7-10.477 10.477s4.7 10.477 10.477 10.477 10.477-4.7 10.477-10.477v-9.112c1.866 0.995 3.942 1.514 6.091 1.514 0.518 0 0.938-0.42 0.938-0.938v-5.021c-0-0.518-0.42-0.938-0.938-0.938z"></path>
</symbol>
<symbol id="icon-youtube" viewBox="0 0 32 32">
<path d="M30.753 6.6c-1.155-1.373-3.288-1.933-7.361-1.933h-14.785c-4.166 0-6.335 0.596-7.486 2.058-1.122 1.425-1.122 3.525-1.122 6.432v5.54c0 5.631 1.331 8.49 8.608 8.49h14.785c3.532 0 5.489-0.494 6.755-1.706 1.299-1.243 1.853-3.272 1.853-6.784v-5.54c0-3.065-0.087-5.178-1.247-6.557zM20.544 16.692l-6.714 3.509c-0.15 0.078-0.314 0.117-0.478 0.117-0.186 0-0.371-0.050-0.535-0.149-0.309-0.187-0.497-0.522-0.497-0.883v-6.995c0-0.36 0.188-0.695 0.496-0.882s0.692-0.2 1.012-0.034l6.714 3.486c0.342 0.177 0.556 0.53 0.557 0.915s-0.213 0.738-0.554 0.916z"></path>
</symbol>
<symbol id="icon-video" viewBox="0 0 32 32">
<path fill="#fff" style="fill: var(--color1, #fff)" d="M15.849 0.307h0c8.719 0 15.787 7.068 15.787 15.787v0c0 8.719-7.068 15.787-15.787 15.787h-0c-8.719 0-15.787-7.068-15.787-15.787v-0c0-8.719 7.068-15.787 15.787-15.787z"></path>
<path fill="#d9d9d9" style="fill: var(--color2, #d9d9d9)" d="M20.783 14.385c1.316 0.76 1.316 2.658 0 3.418l-5.92 3.418c-1.316 0.76-2.96-0.19-2.96-1.709v-6.836c0-1.519 1.645-2.469 2.96-1.709l5.92 3.418z"></path>
</symbol>
<symbol id="icon-close-modal" viewBox="0 0 32 32">
<path fill="#fff" style="fill: var(--color1, #fff)" d="M17.555 16.011l10.127-10.093c0.423-0.427 0.423-1.119 0-1.546-0.416-0.435-1.102-0.448-1.534-0.029l-10.127 10.093-9.997-10.093c-0.205-0.219-0.49-0.342-0.788-0.342s-0.584 0.124-0.788 0.342c-0.375 0.413-0.375 1.046 0 1.459l9.997 10.079-10.127 10.079c-0.423 0.427-0.423 1.119 0 1.546 0.201 0.208 0.478 0.324 0.767 0.321 0.294 0.024 0.585-0.070 0.81-0.263l10.127-10.093 10.127 10.21c0.201 0.208 0.479 0.324 0.767 0.321 0.288 0.001 0.564-0.114 0.767-0.321 0.423-0.427 0.423-1.119 0-1.546l-10.127-10.122z"></path>
</symbol>
</defs>
</svg>
