<svg width="59" height="48" viewBox="0 0 59 48" fill="none" xmlns="http://www.w3.org/2000/svg">
<ellipse cx="29.4999" cy="24" rx="24.5833" ry="24" fill="#96B6FF" fill-opacity="0.2"/>
<path d="M46.3199 34.2402C45.7614 34.3465 34.9379 36.2604 29.4999 29.3067C25.1766 34.7884 17.5132 34.9605 12.7642 34.2615C-1.05226 30.5082 0.0121599 16.2394 0.0226987 16.1012C0.038541 15.8899 0.117525 15.6883 0.249229 15.5232C0.380933 15.358 0.559168 15.2371 0.760419 15.1762C0.960712 15.1147 1.17453 15.1142 1.37512 15.1747C1.5757 15.2352 1.75413 15.3541 1.88808 15.5164C1.91969 15.559 5.35536 19.7588 9.79222 19.9183C12.2595 20.0242 14.6667 18.7721 16.8322 16.4204C19.4549 14.3169 25.5657 12.7155 29.4999 17.7387C30.8397 16.0165 32.76 14.8511 34.8958 14.4639C37.477 14.1749 40.0718 14.873 42.1676 16.4202C44.3335 18.7718 46.7404 20.0245 49.2076 19.9183C53.6444 19.7588 57.0801 15.559 57.1117 15.5165C57.2464 15.3563 57.4248 15.2397 57.6247 15.1811C57.8246 15.1224 58.0372 15.1244 58.236 15.1867C58.4348 15.249 58.6111 15.369 58.7428 15.5316C58.8746 15.6942 58.9561 15.8923 58.9771 16.1013C58.9876 16.2394 60.052 30.5082 46.3199 34.2402Z" fill="url(#paint0_linear_1_48)"/>
<defs>
<linearGradient id="paint0_linear_1_48" x1="0" y1="14.4" x2="57.696" y2="37.7781" gradientUnits="userSpaceOnUse">
<stop stop-color="#3773FF"/>
<stop offset="1" stop-color="#8C40FF"/>
</linearGradient>
</defs>
</svg>
